<svg width="476" height="251" viewBox="0 0 476 251" fill="none" xmlns="http://www.w3.org/2000/svg">
<path d="M357.302 50.5338L353.54 52.2116C348.216 54.586 342.068 54.2137 337.068 51.2143C328.924 46.3279 326.026 35.9245 330.47 27.5308L332.397 23.8901C338.593 12.1858 354.471 10.0629 363.524 19.7282C372.589 29.4059 369.413 45.1331 357.302 50.5338Z" fill="#CFBAFC" stroke="#C1A4FF" stroke-width="5"/>
<path d="M388.654 53.152L386.693 54.0261C383.919 55.2632 380.716 55.0693 378.112 53.5066C373.869 50.9607 372.358 45.5405 374.674 41.1673L375.678 39.2704C378.906 33.1724 387.178 32.0663 391.895 37.102C396.618 42.1442 394.963 50.3382 388.654 53.152Z" fill="#CFBAFC" stroke="#C1A4FF" stroke-width="5"/>
<path d="M89.994 241.77L85.1513 238.864C75.9451 233.34 71.5952 222.323 74.5446 212L75.7123 207.913C76.2582 206.003 77.282 204.263 78.687 202.858L80.1044 201.44C84.128 197.417 90.7181 197.644 94.4554 201.935C98.0716 206.087 104.394 206.455 108.468 202.751L111.155 200.308C111.747 199.771 112.386 199.287 113.064 198.863L113.533 198.57C119.847 194.624 127.952 195.039 133.829 199.61L136.638 201.795C142.257 206.165 143.638 214.089 139.829 220.103L139.053 221.33C137.758 223.373 135.765 224.876 133.444 225.559L128.42 227.037C124.317 228.244 122.622 233.131 125.097 236.619C127.805 240.434 125.498 245.761 120.864 246.397L109.106 248.011C106.773 248.331 104.396 248.032 102.215 247.144L94.2594 243.902C92.7851 243.302 91.3591 242.589 89.994 241.77Z" fill="#CFBAFC" stroke="#C1A4FF" stroke-width="5"/>
<path d="M465.983 119.314L459.792 155.335C456.112 176.743 433.282 188.984 413.415 180.2C407.936 177.778 401.906 176.876 395.958 177.587L346.545 183.5L300.404 188.417C290.679 189.453 281.414 193.098 273.59 198.966C259.735 209.357 241.752 212.513 225.187 207.459L192.545 197.5L170.537 187.872C153.544 180.437 134.818 177.875 116.453 180.473L95.0446 183.5H68.1767C61.7701 183.5 55.3784 182.884 49.0897 181.662L27.2135 177.408C24.1196 176.806 21.1374 175.729 18.3729 174.215C8.08482 168.582 1.93204 157.553 2.54143 145.84L5.79172 83.3619C5.95943 80.138 6.59815 76.956 7.68757 73.9171C12.4005 60.7706 24.8618 52 38.8276 52H49.1911C59.1756 52 68.9096 55.1262 77.0269 60.94L83.0446 65.25C95.0754 73.8666 109.502 78.5 124.3 78.5H140.045H175.286C186.564 78.5 197.614 75.3255 207.172 69.3396L211.097 66.8811C229.751 55.1991 253.666 56.1809 271.299 69.3527C279.302 75.3305 288.823 78.9398 298.777 79.7693L311.356 80.8176C324.672 81.9273 338.075 80.2834 350.728 75.9882L373.099 68.3943C381.672 65.4845 390.663 64 399.715 64H419.365C435.654 64 450.797 72.3811 459.446 86.1837C465.627 96.0468 467.955 107.842 465.983 119.314Z" fill="#CFBAFC" stroke="#C1A4FF" stroke-width="5"/>
<path opacity="0.2" d="M59.4806 132.456C55.7366 132.456 52.5686 132.36 49.9767 132.168C47.4806 131.88 44.1686 131.448 40.0406 130.872L39.8966 145.992C39.8006 148.584 39.7526 152.28 39.7526 157.08C39.7526 159.576 39.0326 161.544 37.5926 162.984C36.2486 164.328 34.7126 165 32.9846 165C29.8166 165 27.4646 164.616 25.9286 163.848C24.3926 162.984 23.6246 161.496 23.6246 159.384C23.6246 156.6 23.8646 152.664 24.3446 147.576C25.4006 136.632 25.9286 125.4 25.9286 113.88C25.9286 103.128 25.5926 93 24.9206 83.496C25.0166 82.152 25.6886 80.616 26.9366 78.888C28.2806 77.16 29.9606 76.2 31.9766 76.008C34.1846 76.008 37.6886 75.624 42.4886 74.856C47.4806 74.088 51.2726 73.704 53.8646 73.704C61.7366 73.704 67.8326 74.472 72.1526 76.008C76.5686 77.544 80.9846 80.088 85.4006 83.64C90.2007 91.128 92.6007 96.408 92.6007 99.48C92.6007 105.912 91.3047 111.624 88.7126 116.616C86.1207 121.608 82.3287 125.496 77.3366 128.28C72.3447 131.064 66.3927 132.456 59.4806 132.456ZM56.1686 85.944C53.0966 85.944 50.4086 86.136 48.1046 86.52C45.8966 86.808 43.2086 87.336 40.0406 88.104C40.4246 96.936 40.6166 103.368 40.6166 107.4C40.6166 111.528 40.4726 114.984 40.1846 117.768C44.3126 118.632 47.5766 119.208 49.9767 119.496C52.3767 119.688 55.0647 119.784 58.0406 119.784C65.1446 119.784 70.1366 117.96 73.0166 114.312C75.9927 110.568 77.4807 106.248 77.4807 101.352C77.4807 99.912 77.0487 98.136 76.1847 96.024C75.3207 93.912 74.5527 92.52 73.8807 91.848C71.2887 89.544 68.7447 88.008 66.2487 87.24C63.8487 86.376 60.4886 85.944 56.1686 85.944ZM124.754 159.24C124.754 160.872 124.13 162.312 122.882 163.56C121.634 164.808 120.098 165.432 118.274 165.432C115.394 165.432 113.282 164.904 111.938 163.848C110.594 162.696 109.922 160.632 109.922 157.656C109.922 154.104 109.826 149.448 109.634 143.688C109.442 138.888 109.346 134.856 109.346 131.592C109.346 130.056 109.442 128.04 109.634 125.544C109.826 123.24 109.922 121.512 109.922 120.36C109.634 118.536 108.914 117.048 107.762 115.896C106.61 114.648 105.122 114.024 103.298 114.024C102.434 114.024 101.714 113.64 101.138 112.872C100.562 112.008 100.274 111.144 100.274 110.28C100.274 108.072 101.138 106.392 102.866 105.24C104.69 104.088 106.85 103.512 109.346 103.512C114.53 103.512 118.13 106.584 120.146 112.728C122.642 109.848 125.474 107.544 128.642 105.816C131.906 103.992 135.026 103.08 138.002 103.08C141.554 103.08 144.77 104.04 147.65 105.96C150.626 107.88 152.114 110.472 152.114 113.736C152.114 115.56 151.298 117.432 149.666 119.352C148.13 121.272 146.546 122.232 144.914 122.232C144.05 122.232 143.282 122.04 142.61 121.656C142.034 121.176 141.314 120.504 140.45 119.64C139.49 118.68 138.674 118.008 138.002 117.624C137.33 117.144 136.562 116.904 135.698 116.904C134.162 116.904 132.722 117.144 131.378 117.624C130.034 118.104 129.122 118.68 128.642 119.352C127.106 121.752 125.954 123.912 125.186 125.832C124.514 127.752 124.178 129.816 124.178 132.024C124.178 133.656 124.13 134.952 124.034 135.912L123.89 144.12C123.89 145.368 123.938 146.76 124.034 148.296C124.13 149.832 124.226 150.984 124.322 151.752C124.61 154.344 124.754 156.84 124.754 159.24ZM217.701 118.776C218.469 120.12 219.093 122.088 219.573 124.68C220.053 127.176 220.293 129.432 220.293 131.448C220.293 135.192 219.477 140.52 217.845 147.432C211.221 159.528 201.429 165.576 188.469 165.576C183.669 165.576 178.773 163.992 173.781 160.824C168.789 157.656 165.333 154.008 163.413 149.88C160.821 141.624 159.525 136.392 159.525 134.184C159.525 130.344 160.341 126.264 161.973 121.944C163.701 117.624 165.861 113.88 168.453 110.712C170.085 108.504 173.013 106.632 177.237 105.096C181.461 103.464 185.301 102.648 188.757 102.648C195.477 102.648 201.189 103.944 205.893 106.536C210.597 109.032 214.533 113.112 217.701 118.776ZM205.173 141.96C205.653 140.712 205.893 137.496 205.893 132.312C205.893 129.528 205.365 126.792 204.309 124.104C203.349 121.416 201.909 119.112 199.989 117.192C199.797 117 199.269 116.712 198.405 116.328C197.541 115.848 196.341 115.416 194.805 115.032C193.365 114.552 191.685 114.312 189.765 114.312C184.389 114.312 180.453 116.472 177.957 120.792C175.461 125.112 174.213 130.008 174.213 135.48C174.213 136.44 174.453 138.264 174.933 140.952C175.509 143.64 175.989 145.32 176.373 145.992C176.661 146.664 177.381 147.624 178.533 148.872C179.781 150.024 181.269 151.08 182.997 152.04C184.821 152.904 186.693 153.336 188.613 153.336C192.933 153.336 196.389 152.328 198.981 150.312C201.573 148.2 203.637 145.416 205.173 141.96ZM240.7 72.552C244.06 72.84 246.892 73.656 249.196 75C251.5 76.344 252.652 78.504 252.652 81.48C252.652 83.688 251.692 85.464 249.772 86.808C247.948 88.056 245.644 88.68 242.86 88.68C239.98 88.68 237.964 88.008 236.812 86.664C235.756 85.32 235.228 83.928 235.228 82.488C235.228 79.704 235.564 77.352 236.236 75.432C236.908 73.416 238.396 72.456 240.7 72.552ZM245.452 102.504C247.756 102.504 249.532 103.176 250.78 104.52C252.028 105.768 252.652 107.112 252.652 108.552C252.652 109.416 252.556 110.904 252.364 113.016C252.076 116.184 251.932 119.352 251.932 122.52C251.932 126.552 252.076 130.536 252.364 134.472C252.556 138.504 252.652 141.432 252.652 143.256C253.036 155.16 253.228 164.856 253.228 172.344C253.228 179.64 251.404 185.112 247.756 188.76C244.204 192.504 239.26 194.376 232.924 194.376C231.004 194.376 228.94 193.608 226.732 192.072C224.524 190.632 223.42 189.048 223.42 187.32C223.42 185.88 223.804 184.728 224.572 183.864C225.34 183 226.252 182.568 227.308 182.568C227.98 182.568 228.844 182.712 229.9 183C231.052 183.288 231.916 183.432 232.492 183.432C234.124 183.432 235.42 183.192 236.38 182.712C237.34 182.232 238.108 181.032 238.684 179.112C239.26 177.192 239.548 174.216 239.548 170.184C239.548 148.968 239.02 132.6 237.964 121.08C237.388 115.32 237.1 110.952 237.1 107.976C237.1 106.632 237.772 105.384 239.116 104.232C240.556 103.08 242.668 102.504 245.452 102.504ZM268.502 132.024C268.502 126.168 269.798 121.32 272.39 117.48C274.982 113.544 278.582 109.848 283.19 106.392C284.534 105.432 286.79 104.616 289.958 103.944C293.126 103.176 295.91 102.792 298.31 102.792C301.19 102.792 304.214 103.416 307.382 104.664C310.646 105.816 313.286 107.16 315.302 108.696C318.854 111.288 321.302 114.312 322.646 117.768C323.99 121.128 324.662 125.16 324.662 129.864C324.662 131.88 323.51 133.848 321.206 135.768C318.998 137.592 316.598 138.504 314.006 138.504L308.534 138.36C305.75 138.36 301.766 138.456 296.582 138.648L293.558 138.792C291.446 138.984 289.862 139.08 288.806 139.08C287.27 139.08 285.158 138.888 282.47 138.504C282.854 143.016 284.534 146.568 287.51 149.16C290.486 151.656 293.702 152.904 297.158 152.904C303.206 152.904 307.43 151.704 309.83 149.304C311.846 147.864 313.19 146.952 313.862 146.568C314.534 146.184 315.59 145.992 317.03 145.992C318.566 145.992 319.91 146.712 321.062 148.152C322.214 149.592 322.79 151.032 322.79 152.472C322.79 154.104 321.782 155.784 319.766 157.512C317.846 159.144 315.206 160.872 311.846 162.696C310.022 163.464 307.526 164.136 304.358 164.712C301.19 165.288 298.55 165.576 296.438 165.576C293.078 165.576 289.334 164.616 285.206 162.696C281.078 160.68 278.006 158.472 275.99 156.072C273.974 153.672 272.198 150.264 270.662 145.848C269.222 141.432 268.502 136.824 268.502 132.024ZM297.158 128.136C303.974 128.136 308.966 127.896 312.134 127.416C311.942 124.632 311.078 122.376 309.542 120.648C308.006 118.824 305.894 117.288 303.206 116.04C302.342 115.656 301.574 115.368 300.902 115.176C300.23 114.984 299.462 114.888 298.598 114.888C294.182 114.888 290.438 116.088 287.366 118.488C284.39 120.888 282.614 123.96 282.038 127.704C286.838 127.992 291.878 128.136 297.158 128.136ZM389.982 116.904C389.982 118.92 389.55 120.456 388.686 121.512C387.918 122.568 386.622 123.096 384.798 123.096C383.454 123.096 382.302 122.76 381.342 122.088C380.478 121.416 379.326 120.264 377.886 118.632C376.734 117.384 375.39 116.376 373.854 115.608C372.414 114.84 371.118 114.456 369.966 114.456C364.11 114.456 359.886 115.704 357.294 118.2C355.662 119.928 354.318 122.232 353.262 125.112C352.206 127.896 351.678 130.776 351.678 133.752C351.678 138.072 352.302 141.528 353.55 144.12C354.798 146.712 357.006 148.92 360.174 150.744C361.326 151.416 362.958 151.992 365.07 152.472C367.182 152.856 368.91 153.048 370.254 153.048C372.078 153.048 373.998 152.568 376.014 151.608C378.03 150.552 379.758 149.208 381.198 147.576C383.022 145.464 385.23 144.408 387.822 144.408C388.878 144.408 390.078 144.936 391.422 145.992C392.862 147.048 393.582 148.296 393.582 149.736C393.582 152.616 392.19 155.304 389.406 157.8C386.718 160.2 383.406 162.12 379.47 163.56C375.534 164.904 371.886 165.576 368.526 165.576C362.862 165.576 357.582 164.28 352.686 161.688C347.886 159.096 344.046 155.544 341.166 151.032C338.286 146.424 336.846 141.24 336.846 135.48C336.846 130.488 337.758 125.64 339.582 120.936C341.502 116.232 344.046 112.392 347.214 109.416C349.806 107.016 353.022 105.24 356.862 104.088C360.702 102.936 364.734 102.36 368.958 102.36C371.934 102.36 375.006 102.936 378.174 104.088C381.342 105.24 383.886 106.776 385.806 108.696C388.59 111.48 389.982 114.216 389.982 116.904ZM405.786 115.176C404.442 114.984 403.338 114.408 402.474 113.448C401.706 112.488 401.322 111.336 401.322 109.992C401.322 109.32 401.466 108.6 401.754 107.832C402.138 107.064 402.666 106.392 403.338 105.816C404.586 104.568 407.946 103.944 413.418 103.944C414.186 100.2 414.57 96.408 414.57 92.568C414.57 91.128 414.522 89.88 414.426 88.824C414.33 87.768 414.282 86.952 414.282 86.376C414.282 84.264 415.05 82.68 416.586 81.624C418.218 80.568 420.042 80.04 422.058 80.04C424.554 80.04 426.234 80.664 427.098 81.912C428.058 83.16 428.538 85.464 428.538 88.824C428.538 93.816 428.106 98.712 427.242 103.512C428.778 103.512 430.89 103.416 433.578 103.224C437.226 103.032 439.866 102.936 441.498 102.936C443.13 102.936 444.522 103.368 445.674 104.232C446.922 105 447.546 106.104 447.546 107.544C447.546 111.288 445.866 113.496 442.506 114.168C438.954 115.032 433.434 115.56 425.946 115.752C425.658 119.496 425.514 123.576 425.514 127.992C425.514 134.904 425.946 140.568 426.81 144.984C427.386 148.056 428.346 150.312 429.69 151.752C431.13 153.096 433.242 153.768 436.026 153.768C437.658 153.768 439.338 153.336 441.066 152.472C442.218 151.8 443.274 151.464 444.234 151.464C445.578 151.464 446.538 151.896 447.114 152.76C447.786 153.624 448.122 154.776 448.122 156.216C448.122 158.904 446.682 161.16 443.802 162.984C440.922 164.712 437.226 165.576 432.714 165.576C429.93 165.576 427.098 164.904 424.218 163.56C421.434 162.216 419.082 160.536 417.162 158.52C416.874 158.232 416.346 157.128 415.578 155.208C414.81 153.288 414.138 151.224 413.562 149.016C412.602 144.504 412.122 138.168 412.122 130.008C412.122 126.456 412.314 121.704 412.698 115.752L405.786 115.176Z" fill="#CE0000"/>
<path d="M52.4806 126.456C48.7366 126.456 45.5686 126.36 42.9767 126.168C40.4806 125.88 37.1686 125.448 33.0406 124.872L32.8966 139.992C32.8006 142.584 32.7526 146.28 32.7526 151.08C32.7526 153.576 32.0326 155.544 30.5926 156.984C29.2486 158.328 27.7126 159 25.9846 159C22.8166 159 20.4646 158.616 18.9286 157.848C17.3926 156.984 16.6246 155.496 16.6246 153.384C16.6246 150.6 16.8646 146.664 17.3446 141.576C18.4006 130.632 18.9286 119.4 18.9286 107.88C18.9286 97.128 18.5926 87 17.9206 77.496C18.0166 76.152 18.6886 74.616 19.9366 72.888C21.2806 71.16 22.9606 70.2 24.9766 70.008C27.1846 70.008 30.6886 69.624 35.4886 68.856C40.4806 68.088 44.2726 67.704 46.8646 67.704C54.7366 67.704 60.8326 68.472 65.1526 70.008C69.5686 71.544 73.9846 74.088 78.4006 77.64C83.2007 85.128 85.6007 90.408 85.6007 93.48C85.6007 99.912 84.3047 105.624 81.7126 110.616C79.1207 115.608 75.3287 119.496 70.3366 122.28C65.3447 125.064 59.3927 126.456 52.4806 126.456ZM49.1686 79.944C46.0966 79.944 43.4086 80.136 41.1046 80.52C38.8966 80.808 36.2086 81.336 33.0406 82.104C33.4246 90.936 33.6166 97.368 33.6166 101.4C33.6166 105.528 33.4726 108.984 33.1846 111.768C37.3126 112.632 40.5766 113.208 42.9767 113.496C45.3767 113.688 48.0647 113.784 51.0406 113.784C58.1446 113.784 63.1366 111.96 66.0166 108.312C68.9927 104.568 70.4807 100.248 70.4807 95.352C70.4807 93.912 70.0487 92.136 69.1847 90.024C68.3207 87.912 67.5527 86.52 66.8807 85.848C64.2887 83.544 61.7447 82.008 59.2487 81.24C56.8487 80.376 53.4886 79.944 49.1686 79.944ZM117.754 153.24C117.754 154.872 117.13 156.312 115.882 157.56C114.634 158.808 113.098 159.432 111.274 159.432C108.394 159.432 106.282 158.904 104.938 157.848C103.594 156.696 102.922 154.632 102.922 151.656C102.922 148.104 102.826 143.448 102.634 137.688C102.442 132.888 102.346 128.856 102.346 125.592C102.346 124.056 102.442 122.04 102.634 119.544C102.826 117.24 102.922 115.512 102.922 114.36C102.634 112.536 101.914 111.048 100.762 109.896C99.6103 108.648 98.1223 108.024 96.2983 108.024C95.4343 108.024 94.7143 107.64 94.1383 106.872C93.5623 106.008 93.2743 105.144 93.2743 104.28C93.2743 102.072 94.1383 100.392 95.8663 99.24C97.6903 98.088 99.8503 97.512 102.346 97.512C107.53 97.512 111.13 100.584 113.146 106.728C115.642 103.848 118.474 101.544 121.642 99.816C124.906 97.992 128.026 97.08 131.002 97.08C134.554 97.08 137.77 98.04 140.65 99.96C143.626 101.88 145.114 104.472 145.114 107.736C145.114 109.56 144.298 111.432 142.666 113.352C141.13 115.272 139.546 116.232 137.914 116.232C137.05 116.232 136.282 116.04 135.61 115.656C135.034 115.176 134.314 114.504 133.45 113.64C132.49 112.68 131.674 112.008 131.002 111.624C130.33 111.144 129.562 110.904 128.698 110.904C127.162 110.904 125.722 111.144 124.378 111.624C123.034 112.104 122.122 112.68 121.642 113.352C120.106 115.752 118.954 117.912 118.186 119.832C117.514 121.752 117.178 123.816 117.178 126.024C117.178 127.656 117.13 128.952 117.034 129.912L116.89 138.12C116.89 139.368 116.938 140.76 117.034 142.296C117.13 143.832 117.226 144.984 117.322 145.752C117.61 148.344 117.754 150.84 117.754 153.24ZM210.701 112.776C211.469 114.12 212.093 116.088 212.573 118.68C213.053 121.176 213.293 123.432 213.293 125.448C213.293 129.192 212.477 134.52 210.845 141.432C204.221 153.528 194.429 159.576 181.469 159.576C176.669 159.576 171.773 157.992 166.781 154.824C161.789 151.656 158.333 148.008 156.413 143.88C153.821 135.624 152.525 130.392 152.525 128.184C152.525 124.344 153.341 120.264 154.973 115.944C156.701 111.624 158.861 107.88 161.453 104.712C163.085 102.504 166.013 100.632 170.237 99.096C174.461 97.464 178.301 96.648 181.757 96.648C188.477 96.648 194.189 97.944 198.893 100.536C203.597 103.032 207.533 107.112 210.701 112.776ZM198.173 135.96C198.653 134.712 198.893 131.496 198.893 126.312C198.893 123.528 198.365 120.792 197.309 118.104C196.349 115.416 194.909 113.112 192.989 111.192C192.797 111 192.269 110.712 191.405 110.328C190.541 109.848 189.341 109.416 187.805 109.032C186.365 108.552 184.685 108.312 182.765 108.312C177.389 108.312 173.453 110.472 170.957 114.792C168.461 119.112 167.213 124.008 167.213 129.48C167.213 130.44 167.453 132.264 167.933 134.952C168.509 137.64 168.989 139.32 169.373 139.992C169.661 140.664 170.381 141.624 171.533 142.872C172.781 144.024 174.269 145.08 175.997 146.04C177.821 146.904 179.693 147.336 181.613 147.336C185.933 147.336 189.389 146.328 191.981 144.312C194.573 142.2 196.637 139.416 198.173 135.96ZM233.7 66.552C237.06 66.84 239.892 67.656 242.196 69C244.5 70.344 245.652 72.504 245.652 75.48C245.652 77.688 244.692 79.464 242.772 80.808C240.948 82.056 238.644 82.68 235.86 82.68C232.98 82.68 230.964 82.008 229.812 80.664C228.756 79.32 228.228 77.928 228.228 76.488C228.228 73.704 228.564 71.352 229.236 69.432C229.908 67.416 231.396 66.456 233.7 66.552ZM238.452 96.504C240.756 96.504 242.532 97.176 243.78 98.52C245.028 99.768 245.652 101.112 245.652 102.552C245.652 103.416 245.556 104.904 245.364 107.016C245.076 110.184 244.932 113.352 244.932 116.52C244.932 120.552 245.076 124.536 245.364 128.472C245.556 132.504 245.652 135.432 245.652 137.256C246.036 149.16 246.228 158.856 246.228 166.344C246.228 173.64 244.404 179.112 240.756 182.76C237.204 186.504 232.26 188.376 225.924 188.376C224.004 188.376 221.94 187.608 219.732 186.072C217.524 184.632 216.42 183.048 216.42 181.32C216.42 179.88 216.804 178.728 217.572 177.864C218.34 177 219.252 176.568 220.308 176.568C220.98 176.568 221.844 176.712 222.9 177C224.052 177.288 224.916 177.432 225.492 177.432C227.124 177.432 228.42 177.192 229.38 176.712C230.34 176.232 231.108 175.032 231.684 173.112C232.26 171.192 232.548 168.216 232.548 164.184C232.548 142.968 232.02 126.6 230.964 115.08C230.388 109.32 230.1 104.952 230.1 101.976C230.1 100.632 230.772 99.384 232.116 98.232C233.556 97.08 235.668 96.504 238.452 96.504ZM261.502 126.024C261.502 120.168 262.798 115.32 265.39 111.48C267.982 107.544 271.582 103.848 276.19 100.392C277.534 99.432 279.79 98.616 282.958 97.944C286.126 97.176 288.91 96.792 291.31 96.792C294.19 96.792 297.214 97.416 300.382 98.664C303.646 99.816 306.286 101.16 308.302 102.696C311.854 105.288 314.302 108.312 315.646 111.768C316.99 115.128 317.662 119.16 317.662 123.864C317.662 125.88 316.51 127.848 314.206 129.768C311.998 131.592 309.598 132.504 307.006 132.504L301.534 132.36C298.75 132.36 294.766 132.456 289.582 132.648L286.558 132.792C284.446 132.984 282.862 133.08 281.806 133.08C280.27 133.08 278.158 132.888 275.47 132.504C275.854 137.016 277.534 140.568 280.51 143.16C283.486 145.656 286.702 146.904 290.158 146.904C296.206 146.904 300.43 145.704 302.83 143.304C304.846 141.864 306.19 140.952 306.862 140.568C307.534 140.184 308.59 139.992 310.03 139.992C311.566 139.992 312.91 140.712 314.062 142.152C315.214 143.592 315.79 145.032 315.79 146.472C315.79 148.104 314.782 149.784 312.766 151.512C310.846 153.144 308.206 154.872 304.846 156.696C303.022 157.464 300.526 158.136 297.358 158.712C294.19 159.288 291.55 159.576 289.438 159.576C286.078 159.576 282.334 158.616 278.206 156.696C274.078 154.68 271.006 152.472 268.99 150.072C266.974 147.672 265.198 144.264 263.662 139.848C262.222 135.432 261.502 130.824 261.502 126.024ZM290.158 122.136C296.974 122.136 301.966 121.896 305.134 121.416C304.942 118.632 304.078 116.376 302.542 114.648C301.006 112.824 298.894 111.288 296.206 110.04C295.342 109.656 294.574 109.368 293.902 109.176C293.23 108.984 292.462 108.888 291.598 108.888C287.182 108.888 283.438 110.088 280.366 112.488C277.39 114.888 275.614 117.96 275.038 121.704C279.838 121.992 284.878 122.136 290.158 122.136ZM382.982 110.904C382.982 112.92 382.55 114.456 381.686 115.512C380.918 116.568 379.622 117.096 377.798 117.096C376.454 117.096 375.302 116.76 374.342 116.088C373.478 115.416 372.326 114.264 370.886 112.632C369.734 111.384 368.39 110.376 366.854 109.608C365.414 108.84 364.118 108.456 362.966 108.456C357.11 108.456 352.886 109.704 350.294 112.2C348.662 113.928 347.318 116.232 346.262 119.112C345.206 121.896 344.678 124.776 344.678 127.752C344.678 132.072 345.302 135.528 346.55 138.12C347.798 140.712 350.006 142.92 353.174 144.744C354.326 145.416 355.958 145.992 358.07 146.472C360.182 146.856 361.91 147.048 363.254 147.048C365.078 147.048 366.998 146.568 369.014 145.608C371.03 144.552 372.758 143.208 374.198 141.576C376.022 139.464 378.23 138.408 380.822 138.408C381.878 138.408 383.078 138.936 384.422 139.992C385.862 141.048 386.582 142.296 386.582 143.736C386.582 146.616 385.19 149.304 382.406 151.8C379.718 154.2 376.406 156.12 372.47 157.56C368.534 158.904 364.886 159.576 361.526 159.576C355.862 159.576 350.582 158.28 345.686 155.688C340.886 153.096 337.046 149.544 334.166 145.032C331.286 140.424 329.846 135.24 329.846 129.48C329.846 124.488 330.758 119.64 332.582 114.936C334.502 110.232 337.046 106.392 340.214 103.416C342.806 101.016 346.022 99.24 349.862 98.088C353.702 96.936 357.734 96.36 361.958 96.36C364.934 96.36 368.006 96.936 371.174 98.088C374.342 99.24 376.886 100.776 378.806 102.696C381.59 105.48 382.982 108.216 382.982 110.904ZM398.786 109.176C397.442 108.984 396.338 108.408 395.474 107.448C394.706 106.488 394.322 105.336 394.322 103.992C394.322 103.32 394.466 102.6 394.754 101.832C395.138 101.064 395.666 100.392 396.338 99.816C397.586 98.568 400.946 97.944 406.418 97.944C407.186 94.2 407.57 90.408 407.57 86.568C407.57 85.128 407.522 83.88 407.426 82.824C407.33 81.768 407.282 80.952 407.282 80.376C407.282 78.264 408.05 76.68 409.586 75.624C411.218 74.568 413.042 74.04 415.058 74.04C417.554 74.04 419.234 74.664 420.098 75.912C421.058 77.16 421.538 79.464 421.538 82.824C421.538 87.816 421.106 92.712 420.242 97.512C421.778 97.512 423.89 97.416 426.578 97.224C430.226 97.032 432.866 96.936 434.498 96.936C436.13 96.936 437.522 97.368 438.674 98.232C439.922 99 440.546 100.104 440.546 101.544C440.546 105.288 438.866 107.496 435.506 108.168C431.954 109.032 426.434 109.56 418.946 109.752C418.658 113.496 418.514 117.576 418.514 121.992C418.514 128.904 418.946 134.568 419.81 138.984C420.386 142.056 421.346 144.312 422.69 145.752C424.13 147.096 426.242 147.768 429.026 147.768C430.658 147.768 432.338 147.336 434.066 146.472C435.218 145.8 436.274 145.464 437.234 145.464C438.578 145.464 439.538 145.896 440.114 146.76C440.786 147.624 441.122 148.776 441.122 150.216C441.122 152.904 439.682 155.16 436.802 156.984C433.922 158.712 430.226 159.576 425.714 159.576C422.93 159.576 420.098 158.904 417.218 157.56C414.434 156.216 412.082 154.536 410.162 152.52C409.874 152.232 409.346 151.128 408.578 149.208C407.81 147.288 407.138 145.224 406.562 143.016C405.602 138.504 405.122 132.168 405.122 124.008C405.122 120.456 405.314 115.704 405.698 109.752L398.786 109.176Z" fill="#6D5D5D"/>
</svg>
